<?xml version="1.0"?>
<svg xmlns="http://www.w3.org/2000/svg" xmlns:xlink="http://www.w3.org/1999/xlink" version="1.1" id="Capa_1" x="0px" y="0px" viewBox="0 0 413.197 413.197" style="enable-background:new 0 0 413.197 413.197;" xml:space="preserve" width="512px" height="512px" class=""><g><g>
	<g>
		<path d="M409.913,173.034c-0.157-0.143-0.319-0.28-0.486-0.413v0.003L212.834,15.701c-3.649-2.912-8.827-2.912-12.476,0    L3.764,172.624c-4.317,3.444-5.025,9.736-1.58,14.054c0.132,0.166,0.27,0.327,0.412,0.484l39.231,43.2    c3.51,3.91,9.468,4.385,13.554,1.081l9.215-7.464v165.862c0.109,5.529,4.67,9.928,10.2,9.838h263.6    c5.53,0.09,10.091-4.309,10.2-9.838V223.979l9.212,7.461c4.094,3.306,10.059,2.831,13.579-1.081l39.219-43.2    C414.315,183.067,414.005,176.743,409.913,173.034z M247.596,379.679h-82v-99h82V379.679z M328.596,379.679h-61v-108.58    c0-5.523-4.259-10.42-9.781-10.42H155.377c-5.522,0-9.781,4.9-9.781,10.42v108.58h-61V207.958l122-97.574l122,97.574V379.679z     M362.875,209.956L212.848,89.766c-3.653-2.925-8.847-2.925-12.5,0L50.317,209.956l-25.746-28.35L206.596,36.312l182.025,145.294    L362.875,209.956z" data-original="#000000" class="active-path" data-old_color="#000000" fill="#FFFFFF"/>
	</g>
</g></g> </svg>
